<?xml version="1.0" encoding="UTF-8" standalone="no"?>
<!-- Created with Inkscape (http://www.inkscape.org/) -->

<svg
   version="1.1"
   id="svg2"
   width="1024"
   height="1024"
   viewBox="0 0 1024 1024"
   sodipodi:docname="geoextent-logo.png"
   inkscape:version="1.1.2 (0a00cf5339, 2022-02-04)"
   xmlns:inkscape="http://www.inkscape.org/namespaces/inkscape"
   xmlns:sodipodi="http://sodipodi.sourceforge.net/DTD/sodipodi-0.dtd"
   xmlns="http://www.w3.org/2000/svg"
   xmlns:svg="http://www.w3.org/2000/svg">
  <defs
     id="defs6">
    <rect
       x="233.64062"
       y="779.75781"
       width="563.80859"
       height="146.41016"
       id="rect3597" />
  </defs>
  <sodipodi:namedview
     id="namedview4"
     pagecolor="#ffffff"
     bordercolor="#666666"
     borderopacity="1.0"
     inkscape:pageshadow="2"
     inkscape:pageopacity="0.0"
     inkscape:pagecheckerboard="0"
     showgrid="false"
     inkscape:zoom="0.47851563"
     inkscape:cx="537.07755"
     inkscape:cy="839.05306"
     inkscape:window-width="2066"
     inkscape:window-height="1370"
     inkscape:window-x="26"
     inkscape:window-y="23"
     inkscape:window-maximized="0"
     inkscape:current-layer="g8" />
  <g
     inkscape:groupmode="layer"
     inkscape:label="Image"
     id="g8">
    <path
       style="fill:#000000"
       d="m -384.85709,756.0061 c 19.7217,-3.81961 38.9367,-11.27926 56.8772,-22.08095 32.6941,-19.68458 52.7196,-55.73324 58.108,-104.60231 1.4698,-13.33 1.5062,-393.96037 0.039,-407.00001 -4.393,-39.04037 -17.1048,-65.16163 -44.3489,-91.13189 -16.4546,-15.68523 -32.2208,-24.37654 -55.9425,-30.83905 -22.8022,-6.212016 -9.0103,-5.834406 -228.7001,-6.261506 -136.25102,-0.26489 -205.06132,-0.0476 -214.73432,0.67808 -36.9852,2.77471 -66.7377,13.348296 -86.7657,30.835226 -25.2583,22.05364 -37.5722,40.80326 -46.1089,70.20725 -6.2435,21.50545 -5.8911,7.955 -5.8911,226.5119 0,210.77641 -0.087,206.46688 4.6294,228 4.1497,18.94397 12.1299,38.61727 20.9157,51.56291 8.3339,12.27988 33.7841,33.30979 50.4549,41.69178 12.2367,6.15254 35.3332,12.67387 51.5,14.54113 1.925,0.22234 99.125,0.33768 216.00002,0.25631 l 212.5,-0.14794 z m -439.21802,-12.29728 c -14.6842,-1.41583 -32.7707,-6.80129 -46.9825,-13.98956 l -6.7331,-3.40558 10.823,-12.99542 c 12.4601,-14.96113 26.9851,-29.28721 35.6432,-35.15523 21.3788,-14.48936 46.391,-20.94011 94.3896,-24.34338 17.6505,-1.25148 29.68792,-3.15946 38.35632,-6.07965 19.2022,-6.46876 42.5109,-23.25619 53.1853,-38.30524 8.3742,-11.8061 11.7989,-20.18719 19.0469,-46.61192 4.9173,-17.9276 12.4856,-30.81461 26.8298,-45.68487 9.2314,-9.56982 20.2658,-17.64999 32.1921,-23.57331 20.4381,-10.15075 37.931,-14.83521 62.5,-16.73702 7.975,-0.61732 15.5109,-1.36933 16.7465,-1.67113 2.0687,-0.5053 2.2,-0.28299 1.6583,2.8088 -1.1153,6.36705 -3.6552,13.37194 -6.6562,18.35753 -8.6421,14.35723 -16.2343,20.12645 -37.5339,28.52156 -22.4901,8.86432 -28.5313,12.21995 -36.7942,20.43766 -7.8434,7.80042 -11.5885,14.53755 -13.3272,23.97444 -2.3511,12.76028 -0.8138,21.84474 5.68,33.56634 6.5436,11.81137 14.1761,17.93056 43.7267,35.05667 26.9016,15.59089 34.6556,22.39861 41.6966,36.608 l 4.3034,8.68455 -0.01,11.57539 c -0.01,9.56068 -0.4212,12.79375 -2.3899,18.57539 -3.1789,9.33578 -7.3904,17.66154 -12.7722,25.25 l -4.4327,6.25 -155.1994,-0.13515 c -85.35972,-0.0743 -159.13732,-0.51482 -163.95022,-0.97887 z m 153.85062,-30.74046 c 2.145,-1.56996 14.8463,-13.9686 28.2251,-27.55253 l 24.3251,-24.69804 9.1745,8.80252 c 5.046,4.84139 14.8691,14.31503 21.8291,21.05253 6.96,6.7375 13.4073,12.25 14.3273,12.25 0.92,0 2.9881,-1.31538 4.5958,-2.92308 5.6243,-5.62431 5.3655,-6.02632 -20.8269,-32.35335 -13.0625,-13.12961 -25.01,-24.53681 -26.55,-25.34932 -1.54,-0.81252 -3.6719,-1.20056 -4.7376,-0.86232 -1.0657,0.33824 -4.6149,3.89136 -7.887,7.89582 -3.2722,4.00446 -17.2278,18.31143 -31.0124,31.79327 -26.2317,25.65545 -27.471,27.30977 -23.2924,31.09134 1.5715,1.42227 5.6927,3.47134 7.3294,3.64425 0.3299,0.0349 2.3549,-1.22113 4.5,-2.79109 z m 183.4,31.30936 c 0,-0.38129 1.5519,-3.24802 3.4487,-6.3705 8.1086,-13.3481 12.5688,-29.24542 12.6813,-45.19924 0.1214,-17.20697 -5.4256,-30.16177 -18.6152,-43.47506 -9.1783,-9.26438 -14.5413,-13.02927 -33.833,-23.7511 -34.4296,-19.13522 -42.65,-27.52687 -44.3583,-45.28265 -0.8729,-9.07334 1.6554,-16.15945 8.3431,-23.38294 6.2964,-6.80088 13.7068,-10.92654 32.082,-17.86129 18.7521,-7.077 26.4623,-11.41196 34.3802,-19.32989 11.1823,-11.18233 17.5865,-24.0827 19.9952,-40.27802 1.0504,-7.06236 1.2727,-7.52419 3.6209,-7.52419 4.2471,0 23.3083,-6.86986 32.2461,-11.62189 18.3711,-9.76743 32.2569,-20.64434 45.4737,-35.62029 7.4817,-8.47742 11.214,-14.29181 27.1825,-42.34621 19.6014,-34.43694 35.9829,-54.72735 53.602,-66.39239 5.3784,-3.56088 25.6867,-14.01922 27.2229,-14.01922 0.2903,0 0.5231,70.0875 0.5172,155.75 -0.01,128.67184 -0.2613,158.09706 -1.4523,169.25 -3.1083,29.10912 -8.3748,44.60509 -21.9164,64.48577 -18.1369,26.62718 -42.1976,41.20441 -83.6206,50.66179 -8.7782,2.00418 -12.8238,2.20056 -53.25,2.58478 -24.0625,0.22869 -43.75,0.10384 -43.75,-0.27746 z m 115.0262,-114.49088 c 18.1831,-2.22307 30.1349,-6.93196 36.7932,-14.49615 7.1886,-8.16665 7.2498,-8.64801 7.478,-58.77116 l 0.2026,-44.50181 -3.0317,-4.34744 c -8.3027,-11.90632 -26.608,-18.16096 -53.4683,-18.2694 -24.265,-0.0979 -41.0664,4.67585 -50.7127,14.40904 -7.4852,7.55262 -7.4062,6.92758 -7.0781,56.01395 l 0.2908,43.49897 2.6636,5 c 5.0932,9.56064 13.5721,15.42757 27.4199,18.97284 13.414,3.43424 25.4904,4.19697 39.4427,2.49116 z m -33.0262,-15.41334 c -12.6144,-3.20769 -20.254,-8.20386 -21.9652,-14.36494 -0.563,-2.02714 -1.0262,-7.14832 -1.0292,-11.3804 l -0.01,-7.69467 5.2524,2.40462 c 10.7465,4.91991 21.9055,6.92632 38.2476,6.87694 15.156,-0.0458 25.6157,-1.6811 37.3757,-5.84346 2.4067,-0.85181 4.5442,-1.54875 4.75,-1.54875 0.2059,0 0.3743,3.88438 0.3743,8.63197 0,6.81372 -0.4109,9.29677 -1.9506,11.78809 -2.4672,3.99202 -8.4193,7.35183 -17.4675,9.85992 -9.3423,2.58963 -35.4066,3.34956 -43.5819,1.27068 z m 5.5,-39.15848 c -10.4081,-1.85829 -19.1718,-4.79055 -24.3471,-8.14627 l -4.1529,-2.69279 v -13.68393 -13.68392 l 8.0135,3.37966 c 11.7731,4.96529 22.2037,6.87949 37.4865,6.87949 14.5135,0 26.6482,-2.04885 35.25,-5.95171 l 5.25,-2.38206 v 13.42162 c 0,15.74333 0.8043,14.59113 -13.5,19.34045 -15.3541,5.09789 -29.0318,6.19194 -44,3.51946 z m 2,-42.8763 c -13.6295,-2.53825 -28.5,-9.84928 -28.5,-14.01196 0,-2.65909 5.0171,-7.23847 10.7481,-9.81039 6.6284,-2.97464 21.5648,-5.68355 31.3709,-5.68951 9.3039,-0.006 23.387,2.6326 29.881,5.59775 14.0433,6.41219 14.5578,13.55019 1.4066,19.51327 -11.8047,5.35247 -30.1453,7.14986 -44.9066,4.40084 z m -503.76632,176.23412 c -11.2535,-11.12116 -17.2845,-19.41802 -23.1872,-31.89848 -9.8062,-20.73401 -12.6086,-35.78665 -13.47,-72.35152 -1.0531,-44.70422 -1.2594,-207.5 -0.263,-207.5 0.4907,0 14.3459,6.11632 30.7893,13.59181 37.1787,16.90214 44.4828,19.86595 56.3972,22.8844 15.569,3.94434 25.5668,4.83404 47.5,4.22698 22.0273,-0.60966 36.133,-2.91044 52.9859,-8.64256 16.1358,-5.48819 34.11482,-18.64372 47.97632,-35.10505 12.759,-15.15187 24.3649,-26.27283 30.5614,-29.28432 9.4385,-4.58704 18.893,-6.07871 29.7765,-4.69795 22.722,2.8827 37.433,11.33118 55.5101,31.87923 17.556,19.95579 28.9715,27.38107 50.8073,33.04791 19.7062,5.11416 33.3241,11.47771 40.0608,18.72018 5.1285,5.51357 9.7961,17.37937 6.8364,17.37937 -4.8519,0 -35.2359,3.37839 -41.5147,4.61601 -11.6757,2.30143 -28.5365,7.92456 -40.2136,13.41133 -25.203,11.84236 -43.3237,28.00969 -57.0166,50.87043 -6.1589,10.28251 -9.8342,19.41465 -14.7039,36.53559 -5.119,17.99788 -7.8399,24.4122 -13.974,32.94353 -12.3321,17.15134 -29.3861,29.38558 -48.8036,35.01076 -10.1981,2.95439 -18.23902,4.14443 -40.99792,6.06767 -33.7653,2.85333 -53.4324,6.91819 -72.5833,15.00172 -21.5226,9.08458 -39.9644,24.17008 -60.8712,49.79296 -5.7219,7.0125 -10.8171,12.75 -11.3227,12.75 -0.5057,0 -5.1314,-4.1625 -10.2795,-9.25 z m 184.63142,-115.82258 2.6349,-2.07258 v -51.97287 -51.97288 l -2.4545,-2.45454 -2.45462,-2.45455 h -73.9106 c -73.2592,0 -73.9338,0.0183 -76.5454,2.07258 l -2.6349,2.07258 v 51.50434 51.50435 l 2.9231,2.92307 2.9231,2.92308 h 73.442 c 72.7852,0 73.4657,-0.0185 76.07692,-2.07258 z m -140.69112,-12.5868 c -0.3707,-0.37067 -0.674,-19.49895 -0.674,-42.50729 v -41.83333 l 64.75,-1.6e-4 64.75,-1.5e-4 -0.2374,42.25015 -0.2374,42.25016 -63.8386,0.25729 c -35.1113,0.14151 -64.142,-0.046 -64.5126,-0.41667 z m 382.32602,-124.7157 c 0,-3.66881 -3.5721,-12.20218 -7.2542,-17.3294 -4.3288,-6.02774 -13.827,-13.6054 -22.2458,-17.74769 -3.85,-1.89431 -13.075,-5.22201 -20.5,-7.3949 -26.7885,-7.83952 -31.2434,-10.55273 -50.3984,-30.69473 -13.5791,-14.27883 -23.0377,-22.05055 -33.0791,-27.17988 -19.4582,-9.93956 -44.1656,-12.34972 -63.4518,-6.18961 -13.9467,4.45469 -19.1014,8.3262 -32.94,24.74042 -16.68422,19.78942 -28.19382,29.65989 -43.63072,37.41695 -15.2282,7.65217 -38.3873,12.03422 -64,12.10972 -18.9969,0.056 -28.2429,-1.1723 -41.5,-5.51312 -6.8933,-2.2571 -78.4342,-34.5867 -82.6541,-37.3517 l -2.4865,-1.62923 0.4202,-77.68087 c 0.4046,-74.76258 0.5008,-78.05633 2.5623,-87.6745 5.172,-24.12996 12.7671,-40.77892 26.5122,-58.11654 17.5748,-22.16822 45.5279,-38.19728 77.0102,-44.15966 8.4813,-1.60626 24.3941,-1.7302 222.13572,-1.7302 201.5196,0 213.555,0.0981 223.2967,1.81955 13.1538,2.32444 20.3369,4.70602 32.4578,10.76162 32.9766,16.47499 53.402,39.1553 64.0774,71.15145 5.7871,17.34498 7.6766,33.50176 7.9628,68.08865 l 0.2053,24.82125 -9.055,3.86898 c -29.6571,12.67176 -50.9422,30.11454 -67.7117,55.48852 -4.7254,7.15 -12.4162,19.975 -17.0908,28.5 -19.0304,34.70605 -28.4435,46.96258 -46.4418,60.47051 -14.0095,10.51429 -35.7333,20.92314 -47.9893,22.99378 -4.0338,0.68151 -4.2114,0.60396 -4.2114,-1.83937 z m 16.3368,-63.87492 c 17.3289,-21.65971 47.2584,-65.5245 63.6257,-93.25 11.9744,-20.28419 16.4616,-35.34602 16.3853,-55 -0.062,-16.0108 -2.104,-24.50275 -9.498,-39.49917 -4.6392,-9.40928 -6.2755,-11.60047 -15.7632,-21.10836 -11.4561,-11.4805 -19.4123,-16.7959 -31.7746,-21.22783 -33.5401,-12.02429 -71.8137,-3.76672 -94.8693,20.46818 -7.6155,8.00497 -11.4795,13.65943 -16.4741,24.10776 -6.1108,12.78313 -8.2425,22.1134 -8.2842,36.25942 -0.092,31.1982 13.3009,57.98563 63.2344,126.47526 23.1683,31.77807 23.2626,31.89961 24.7994,31.96941 0.67,0.0304 4.5484,-4.10717 8.6186,-9.19467 z m -20.0722,-103.29159 c -24.269,-6.53593 -38.179,-28.17023 -34.2353,-53.24612 2.2917,-14.57114 10.0495,-25.56597 22.2529,-31.53806 18.2603,-8.93621 38.0416,-6.78657 52.3624,5.69023 15.3727,13.39327 19.8015,36.59672 10.5799,55.4297 -5.8387,11.92421 -15.7115,19.62192 -29.7818,23.2205 -9.0023,2.30239 -13.896,2.40493 -21.1781,0.44375 z m -267.56392,38.0557 c 22.6991,-11.26724 42.17742,-21.39224 43.28522,-22.5 1.1078,-1.10776 2.0141,-3.07842 2.0141,-4.37925 0,-3.59163 -3.6603,-7.63486 -6.9117,-7.63486 -1.5723,0 -19.56382,8.27312 -41.67742,19.16473 -24.7621,12.19604 -40.0018,19.15627 -41.9109,19.14147 -2.8202,-0.0219 -21.7858,-8.72572 -64.6632,-29.67585 -9.7148,-4.74669 -18.6228,-8.63035 -19.7955,-8.63035 -2.9021,0 -7.0413,4.34939 -7.0413,7.39878 0,1.36933 1.0125,3.59346 2.25,4.94251 1.2375,1.34905 16.2,9.08534 33.25,17.19176 17.05,8.10643 35.95,17.14122 42,20.07732 6.6834,3.24349 12.3597,5.34843 14.4648,5.364 2.5292,0.0187 14.609,-5.50604 44.7359,-20.46026 z m -0.9084,-35.17545 c 22.9392,-11.36374 42.49522,-21.33348 43.45772,-22.15499 1.0025,-0.85569 1.75,-2.88437 1.75,-4.74976 0,-4.37303 -5.0721,-8.88327 -8.9083,-7.92148 -1.4255,0.35737 -19.67762,9.20932 -40.56042,19.671 -32.9109,16.48742 -38.4391,18.95594 -41.5,18.53106 -1.9422,-0.2696 -20.4952,-8.80776 -41.2288,-18.97369 -39.4329,-19.3344 -40.3656,-19.65975 -44.7227,-15.60052 -2.6462,2.46535 -2.7692,7.92588 -0.2301,10.22367 3.2077,2.90293 84.5081,41.59634 87.4426,41.61669 1.6503,0.0114 19.8514,-8.43141 44.5,-20.64198 z m 0.2077,-35.71246 c 35.34442,-17.66245 42.72822,-21.70971 43.85552,-24.03839 0.873,-1.80349 1.0469,-3.49149 0.4887,-4.74255 -0.5682,-1.27339 -15.78612,-9.15866 -44.18302,-22.89384 -23.824,-11.52329 -43.8625,-20.95143 -44.5299,-20.95143 -0.6675,0 -19.5259,9 -41.9074,20 -22.3816,11 -41.2341,20 -41.8944,20 -2.2095,0 -5.8298,4.31666 -5.8073,6.92431 0.012,1.41663 0.7998,3.5347 1.75,4.70682 0.9503,1.17212 12.3028,7.14169 25.2278,13.26569 12.925,6.12401 31.6,15.14108 41.5,20.03793 9.9,4.89685 19.125,8.90929 20.5,8.91653 1.375,0.007 21.625,-9.54404 45,-21.22507 z m -76.7898,-9.82204 c -20.1241,-9.72403 -29.199,-14.60042 -29,-15.58307 0.4603,-2.27166 59.7599,-30.47681 62.7898,-29.86518 2.625,0.52991 58.9172,27.18399 60.2988,28.55125 0.9993,0.98885 -59.7193,31.10073 -62.6533,31.07136 -1.18,-0.0118 -15.3259,-6.39028 -31.4353,-14.17436 z"
       id="path1148-6"
       sodipodi:nodetypes="ssscssssscscsssscscscsssssssssscsssssssccsscsccsscsssssssssssssssssssssssssssscsssssssscsssscssscsccsssssssccsscccssscsssssscssssssssssscsssssssssssssssssscccccsscccccsssscccccsssssssssssssscccssssssscsscssscscsssssssscsssssssssssssssssssssssssssssssssssssssccsscsscssss" />
    <path
       style="fill:#000000;stroke-width:1"
       d="m 768.77794,800.58574 c 22.43905,-4.34589 44.30159,-12.83337 64.71403,-25.12337 37.19885,-22.39681 59.98356,-63.41243 66.11439,-119.01492 1.67231,-15.16667 1.71373,-448.24212 0.0444,-463.07842 C 894.65244,148.94949 880.18915,119.22912 849.19123,89.68055 830.46943,71.834145 812.53089,61.945292 785.5407,54.592347 759.59671,47.524405 775.28892,47.954044 525.3292,47.468096 370.30486,47.166708 292.01355,47.413937 281.00776,48.239605 c -42.0812,3.157023 -75.93314,15.187504 -98.7207,35.083856 -28.73851,25.092299 -42.74908,46.425329 -52.462,79.880739 -7.10376,24.46858 -6.70281,9.05108 -6.70281,257.7218 0,239.81819 -0.099,234.91488 5.26726,259.41493 4.72147,21.55416 13.80122,43.93815 23.79757,58.6675 9.48218,13.97186 38.43903,37.89937 57.40682,47.43627 13.92273,7.00027 40.20158,14.42014 58.59591,16.54468 2.19024,0.25297 112.78292,0.38421 245.76154,0.29162 l 241.77927,-0.16832 z M 269.04236,786.59408 c -16.70746,-1.61091 -37.28601,-7.7384 -53.45598,-15.91711 l -7.66082,-3.87481 12.31425,-14.786 c 14.17691,-17.02254 30.70323,-33.32254 40.55429,-39.99908 24.32447,-16.48578 52.78297,-23.82534 107.39505,-27.69753 20.08247,-1.42391 33.77847,-3.59478 43.64124,-6.91733 21.84797,-7.36006 48.36826,-26.46054 60.51343,-43.58312 9.52803,-13.4328 13.4246,-22.96868 21.67127,-53.03434 5.59483,-20.39775 14.20592,-35.06039 30.52654,-51.97955 10.50334,-10.88839 23.05812,-20.08189 36.62768,-26.82135 23.25416,-11.54937 43.15731,-16.87928 71.11155,-19.04313 9.07383,-0.70238 17.64807,-1.558 19.05391,-1.90138 2.35374,-0.57493 2.50313,-0.32199 1.88679,3.19581 -1.26897,7.24433 -4.15883,15.21439 -7.57332,20.88691 -9.83285,16.33544 -18.47114,22.89957 -42.7055,32.4514 -25.5889,10.08569 -32.46248,13.90368 -41.86388,23.25366 -8.92411,8.8752 -13.18522,16.5406 -15.16349,27.27775 -2.67505,14.51846 -0.92593,24.85462 6.46262,38.19128 7.44521,13.43879 16.12935,20.40111 49.75157,39.88694 30.60823,17.73908 39.43062,25.4848 47.44176,41.65203 l 4.89634,9.88115 -0.0114,13.1703 c -0.0114,10.878 -0.47924,14.55653 -2.7192,21.1348 -3.6169,10.6221 -8.40868,20.09503 -14.53201,28.72906 l -5.04346,7.11116 -176.58352,-0.15377 c -97.12099,-0.0845 -181.06402,-0.58576 -186.54006,-1.11375 z m 175.04889,-34.97603 c 2.44055,-1.78627 16.8919,-15.89326 32.11409,-31.34885 l 27.67673,-28.10105 10.43862,10.01537 c 5.74125,5.50846 16.91784,16.28743 24.83681,23.95325 7.91898,7.66583 15.25463,13.93787 16.30138,13.93787 1.04676,0 3.39982,-1.49662 5.22904,-3.32584 6.39924,-6.39925 6.10479,-6.85666 -23.69654,-36.81115 -14.86231,-14.93867 -28.45598,-27.91761 -30.20818,-28.84207 -1.75219,-0.92447 -4.17784,-1.36598 -5.39037,-0.98114 -1.21253,0.38485 -5.25075,4.42753 -8.97371,8.98375 -3.72305,4.55621 -19.60153,20.83446 -35.28544,36.1739 -29.84603,29.19038 -31.25609,31.07264 -26.50174,35.37525 1.78804,1.61824 6.47708,3.94964 8.33929,4.14637 0.37536,0.0397 2.67937,-1.38938 5.12002,-3.17566 z m 208.66974,35.62332 c 0,-0.43383 1.76574,-3.69555 3.92389,-7.24826 9.22584,-15.18727 14.30059,-33.27499 14.42857,-51.42701 0.13813,-19.57783 -6.17316,-34.3176 -21.18008,-49.46526 -10.44294,-10.54087 -16.54487,-14.82451 -38.49467,-27.02364 -39.17347,-21.77176 -48.52652,-31.31966 -50.4702,-51.52191 -0.99317,-10.32351 1.88349,-18.38598 9.49265,-26.60476 7.16395,-7.73793 15.59539,-12.43205 36.50242,-20.3223 21.33585,-8.0521 30.1084,-12.98435 39.11727,-21.99326 12.72305,-12.72308 20.00965,-27.40093 22.75023,-45.82771 1.19512,-8.03545 1.44806,-8.56091 4.1198,-8.56091 4.83229,0 26.51983,-7.81643 36.68912,-13.22321 20.90235,-11.11324 36.70141,-23.48882 51.73928,-40.52823 8.51258,-9.64548 12.75913,-16.261 30.92784,-48.18087 22.30218,-39.18183 40.94079,-62.26795 60.98754,-75.54025 6.11947,-4.05152 29.22593,-15.95086 30.9738,-15.95086 0.3303,0 0.59517,79.74449 0.58846,177.20998 -0.0114,146.40087 -0.2973,179.88044 -1.6524,192.57008 -3.53658,33.11992 -9.52872,50.75099 -24.93615,73.37093 -20.63589,30.296 -48.01179,46.88175 -95.14225,57.64221 -9.98769,2.28033 -14.59072,2.50377 -60.58704,2.94093 -27.37795,0.2602 -49.77808,0.11815 -49.77808,-0.31569 z M 783.63606,656.97538 c 20.68844,-2.52937 34.28703,-7.88707 41.86273,-16.49349 8.17908,-9.29189 8.24873,-9.83958 8.50836,-66.86894 l 0.23051,-50.63348 -3.44942,-4.94645 c -9.44669,-13.54683 -30.27418,-20.66327 -60.83542,-20.78665 -27.60835,-0.11139 -46.72473,5.32011 -57.70014,16.39439 -8.51655,8.59326 -8.42666,7.8821 -8.05335,63.73182 l 0.33086,49.49247 3.03061,5.68892 c 5.79496,10.87795 15.44213,17.55326 31.19794,21.58701 15.26225,3.90743 29.00259,4.77525 44.87732,2.8344 z m -37.57672,-17.53706 c -14.35247,-3.64966 -23.04469,-9.33423 -24.99166,-16.34421 -0.64057,-2.30645 -1.16761,-8.13325 -1.17101,-12.94845 l -0.0114,-8.75487 5.97611,2.73594 c 12.2272,5.59779 24.92374,7.88066 43.51753,7.82447 17.24427,-0.0521 29.14516,-1.91273 42.52551,-6.6486 2.7383,-0.96917 5.17032,-1.76214 5.40447,-1.76214 0.23427,0 0.42588,4.41959 0.42588,9.82132 0,7.75255 -0.46752,10.57773 -2.21937,13.41231 -2.80714,4.54206 -9.57935,8.3648 -19.87425,11.21847 -10.62953,2.94644 -40.28509,3.81108 -49.58683,1.44576 z m 6.25782,-44.55392 c -11.84217,-2.11434 -21.81338,-5.45062 -27.70175,-9.2687 l -4.72512,-3.06382 v -15.56937 -15.56935 l 9.11765,3.84532 c 13.39525,5.64943 25.26303,7.82738 42.65156,7.82738 16.51325,0 30.31991,-2.33115 40.10691,-6.77176 l 5.97337,-2.71028 v 15.27092 c 0,17.91252 0.91513,16.60157 -15.36009,22.00527 -17.46966,5.8003 -33.03193,7.04509 -50.06253,4.00439 z m 2.27557,-48.784 c -15.50744,-2.88799 -32.42687,-11.20637 -32.42687,-15.9426 0,-3.02547 5.70839,-8.23582 12.22903,-11.16211 7.5417,-3.3845 24.53611,-6.46666 35.69334,-6.47344 10.58583,-0.007 26.60936,2.99533 33.99813,6.36903 15.97827,7.2957 16.56366,15.4172 1.60042,22.20191 -13.43122,6.08996 -34.29886,8.135 -51.09405,5.00721 z M 181.41506,746.6169 c -12.80406,-12.65349 -19.66604,-22.09353 -26.38204,-36.29361 -11.15733,-23.59084 -14.34586,-40.7175 -15.32595,-82.32046 -1.19821,-50.86378 -1.43293,-236.09034 -0.29925,-236.09034 0.55831,0 16.32255,6.95905 35.0316,15.46455 42.30136,19.231 50.61185,22.60318 64.16788,26.03752 17.71418,4.48781 29.08951,5.5001 54.04477,4.8094 25.06234,-0.69366 41.11158,-3.31146 60.28657,-9.83338 18.35906,-6.24437 38.81532,-21.21254 54.58671,-39.94199 14.51701,-17.23957 27.72202,-29.89282 34.7723,-33.31925 10.73898,-5.21907 21.49618,-6.91627 33.87925,-5.34526 25.85274,3.27989 42.5907,12.89245 63.15856,36.27171 19.97495,22.70539 32.96332,31.15376 57.80776,37.6014 22.42142,5.81882 37.91565,13.05917 45.58057,21.29954 5.83513,6.27326 11.14585,19.77398 7.77835,19.77398 -5.52042,0 -40.09087,3.84388 -47.23479,5.25203 -13.28444,2.61853 -32.4684,9.01644 -45.75443,15.25921 -28.67559,13.47405 -49.29304,31.869 -64.87262,57.8796 -7.0075,11.69928 -11.1892,22.08969 -16.72987,41.56964 -5.82431,20.47771 -8.92012,27.77583 -15.89939,37.48265 -14.03129,19.51453 -33.43506,33.43446 -55.52801,39.83471 -11.60324,3.36146 -20.75207,4.71547 -46.64681,6.9037 -38.41764,3.24647 -60.79457,7.87141 -82.58418,17.06873 -24.48808,10.3363 -45.47088,27.50035 -69.25832,56.65367 -6.51029,7.97872 -12.30753,14.50676 -12.8828,14.50676 -0.57538,0 -5.83843,-4.73603 -11.69586,-10.52451 z m 210.07083,-131.78117 2.99795,-2.35815 v -59.13394 -59.13396 l -2.79269,-2.79274 -2.79282,-2.79275 h -84.09436 c -83.35321,0 -84.12076,0.0208 -87.09219,2.35815 l -2.99795,2.35815 v 58.60086 58.60087 l 3.32586,3.32582 3.32585,3.32584 h 83.5612 c 82.81389,0 83.58815,-0.0211 86.55915,-2.35815 z M 231.40967,600.51466 c -0.42178,-0.42175 -0.76687,-22.18561 -0.76687,-48.36415 v -47.59733 l 73.67157,-1.8e-4 73.67156,-1.7e-4 -0.27009,48.07158 -0.27011,48.07159 -72.63459,0.29274 c -39.94911,0.16101 -72.9798,-0.0523 -73.40147,-0.47408 z M 666.4144,458.61503 c 0,-4.17432 -4.06427,-13.88346 -8.2537,-19.71713 -4.92525,-6.85827 -15.73215,-15.48002 -25.31095,-20.19305 -4.38047,-2.15532 -14.87653,-5.94152 -23.32459,-8.41381 -30.47954,-8.91968 -35.54825,-12.00673 -57.34252,-34.92399 -15.45009,-16.24624 -26.21195,-25.08878 -37.6369,-30.92486 -22.13924,-11.30908 -50.25094,-14.05132 -72.19449,-7.04244 -15.86834,5.06848 -21.73328,9.47342 -37.47863,28.14927 -18.98305,22.5161 -32.0785,33.74658 -49.64237,42.57244 -17.32642,8.70652 -43.67649,13.69235 -72.81823,13.77826 -21.61438,0.0637 -32.13434,-1.33383 -47.21807,-6.27275 -7.84309,-2.56809 -89.24124,-39.35222 -94.04258,-42.4982 l -2.8291,-1.85371 0.4781,-88.38411 c 0.46035,-85.06373 0.5698,-88.81131 2.91535,-99.75471 5.88462,-27.45471 14.52621,-46.39764 30.16517,-66.12412 19.99634,-25.222664 51.80096,-43.460273 87.62104,-50.244178 9.64989,-1.827579 27.75523,-1.968596 252.74263,-1.968596 229.28594,0 242.97964,0.111617 254.06359,2.070257 14.96621,2.644712 23.13902,5.354438 36.93001,12.244396 37.52026,18.744993 60.75998,44.550301 72.90629,80.955041 6.58447,19.73485 8.73432,38.11779 9.05995,77.47023 l 0.23358,28.24124 -10.30263,4.40206 c -33.7434,14.41774 -57.96126,34.26387 -77.04135,63.134 -5.37648,8.13516 -14.12696,22.72725 -19.44565,32.42687 -21.6525,39.48801 -32.36258,53.43331 -52.84078,68.80242 -15.9398,11.963 -40.65681,23.80603 -54.60149,26.16198 -4.58961,0.77541 -4.79168,0.68717 -4.79168,-2.09281 z m 18.58778,-72.67591 c 19.71656,-24.64409 53.76989,-74.55278 72.39235,-106.09844 13.62429,-23.07904 18.72976,-40.21616 18.64295,-62.57816 -0.0706,-18.21684 -2.3939,-27.87886 -10.80668,-44.94156 -5.27841,-10.70573 -7.14017,-13.19883 -17.93513,-24.01677 -13.03458,-13.06233 -22.08702,-19.11012 -36.15266,-24.1527 -38.16142,-13.68105 -81.70854,-4.28572 -107.94085,23.28839 -8.6648,9.10793 -13.0612,15.54149 -18.74398,27.42944 -6.95277,14.54445 -9.37819,25.16029 -9.42563,41.25542 -0.10468,35.49683 15.13356,65.97516 71.94714,143.90162 26.36053,36.15661 26.46783,36.29489 28.21638,36.37431 0.76231,0.0346 5.1751,-4.67307 9.80611,-10.46155 z m -22.83785,-117.5236 c -27.6129,-7.43649 -43.43948,-32.05166 -38.9524,-60.58263 2.60746,-16.57882 11.43416,-29.08857 25.319,-35.88353 20.7763,-10.16748 43.28317,-7.72165 59.57714,6.47426 17.49083,15.23866 22.52985,41.63919 12.03765,63.06707 -6.64318,13.56719 -17.8763,22.32552 -33.88528,26.41993 -10.24268,2.61963 -15.81066,2.7363 -24.09611,0.5049 z m -304.43016,43.29919 c 25.82669,-12.81969 47.98883,-24.33976 49.24927,-25.60016 1.26044,-1.26039 2.29161,-3.50257 2.29161,-4.98264 0,-4.0865 -4.16463,-8.68683 -7.86403,-8.68683 -1.78894,0 -22.25941,9.41303 -47.41993,21.80534 -28.17394,13.87647 -45.51344,21.79571 -47.68559,21.77887 -3.20878,-0.0249 -24.78755,-9.92799 -73.5728,-33.76473 -11.05335,-5.40071 -21.18874,-9.81948 -22.52302,-9.81948 -3.30197,0 -8.01149,4.94867 -8.01149,8.41822 0,1.55801 1.15201,4.08859 2.56002,5.62351 1.40801,1.53493 18.43211,10.33717 37.83134,19.56053 19.39923,9.22337 40.90337,19.50302 47.78697,22.84367 7.60427,3.69039 14.06267,6.08536 16.45783,6.10308 2.87768,0.0213 16.62189,-6.26469 50.89982,-23.27938 z m -1.03356,-40.02209 c 26.09987,-12.92949 48.35041,-24.27291 49.44553,-25.20761 1.14063,-0.97359 1.99113,-3.28179 1.99113,-5.40421 0,-4.97556 -5.77096,-10.10725 -10.13573,-9.01293 -1.62192,0.40661 -22.3889,10.47822 -46.14903,22.38136 -37.44552,18.75914 -43.73543,21.56778 -47.21807,21.08436 -2.20981,-0.30675 -23.31913,-10.02134 -46.9095,-21.58798 -44.86616,-21.99838 -45.92737,-22.36856 -50.88481,-17.75003 -3.01081,2.80504 -3.15076,9.01794 -0.26181,11.63233 3.64968,3.30291 96.15204,47.32769 99.49086,47.35084 1.87769,0.013 22.58663,-9.59313 50.63143,-23.48613 z m 0.23632,-40.63309 c 40.21434,-20.09607 48.61552,-24.70098 49.89814,-27.35052 0.99329,-2.05198 1.19115,-3.97256 0.55604,-5.396 -0.64649,-1.44884 -17.96121,-10.42058 -50.27077,-26.04826 -27.10659,-13.11103 -49.90609,-23.83822 -50.66545,-23.83822 -0.75947,0 -22.21627,10.24006 -47.6816,22.75569 -25.46544,12.51564 -46.91553,22.7557 -47.66681,22.7557 -2.51394,0 -6.63306,4.91143 -6.60746,7.87837 0.0137,1.61182 0.91,4.02173 1.99113,5.35535 1.08123,1.33362 13.99793,8.12571 28.7038,15.0935 14.70587,6.96781 35.954,17.22729 47.21807,22.79886 11.26407,5.57156 21.76014,10.13685 23.32459,10.14509 1.56445,0.008 24.6046,-10.85907 51.20032,-24.14956 z m -87.37027,-11.17537 c -22.8969,-11.06386 -33.22218,-16.61214 -32.99576,-17.73018 0.52372,-2.58466 67.99391,-34.67605 71.44128,-33.98015 2.98669,0.60292 67.03509,30.92953 68.60706,32.48518 1.13699,1.1251 -67.94771,35.38594 -71.28597,35.35252 -1.34259,-0.0134 -17.43758,-7.27076 -35.76661,-16.12737 z"
       id="path1148-6-4"
       sodipodi:nodetypes="ssscssssscscsssscscscsssssssssscsssssssccsscsccsscsssssssssssssssssssssssssssscsssssssscsssscssscsccsssssssccsscccssscsssssscssssssssssscsssssssssssssssssscccccsscccccsssscccccsssssssssssssscccssssssscsscssscscsssssssscsssssssssssssssssssssssssssssssssssssssccsscsscssss" />
    <path
       style="fill:#000000"
       id="path899"
       d="" />
    <text
       xml:space="preserve"
       id="text3595"
       style="font-style:normal;font-weight:normal;font-size:40px;line-height:1.25;font-family:sans-serif;letter-spacing:0px;word-spacing:0px;white-space:pre;shape-inside:url(#rect3597);fill:#000000;fill-opacity:1;stroke:none;stroke-width:0.282585"
       transform="matrix(3.5387666,0,0,3.5387666,-689.65316,-1942.1516)"><tspan
         x="233.64062"
         y="815.19977"
         id="tspan6047"><tspan
           style="font-weight:800;font-family:'Open Sans';-inkscape-font-specification:'Open Sans Ultra-Bold'"
           id="tspan6045">geoextent</tspan></tspan></text>
  </g>
</svg>
